M48
;DRILL file {KiCad 4.0.5} date Sunday, 09. April 2017 'u35' 15:35:56
;FORMAT={-:-/ absolute / metric / decimal}
FMAT,2
METRIC,TZ
T1C0.400
T2C1.000
T3C3.200
%
G90
G05
M71
T1
X121.Y-95.
X121.Y-97.
X121.5Y-100.5
X122.Y-109.
X123.5Y-100.5
X123.5Y-103.5
X124.5Y-100.5
X124.5Y-103.5
X125.Y-97.6
X126.Y-90.
X126.Y-96.5
X126.5Y-103.5
X127.Y-96.5
X127.5Y-103.5
X127.5Y-105.5
X128.Y-96.5
X129.5Y-90.95
X131.Y-90.
X131.5Y-103.5
X131.5Y-105.5
X133.Y-90.
X135.Y-90.
X137.Y-101.5
X137.Y-104.5
X137.Y-109.
X138.645Y-103.
X139.Y-109.
X140.Y-95.
X140.Y-97.
X140.Y-99.
X140.Y-101.
X140.Y-103.
X140.Y-105.
X140.Y-108.
T2
X126.35Y-108.095
X128.89Y-108.095
X131.43Y-108.095
X133.97Y-108.095
T3
X123.Y-92.
X138.Y-92.
T0
M30
