G04 #@! TF.FileFunction,Copper,L1,Top,Signal*
%FSLAX46Y46*%
G04 Gerber Fmt 4.6, Leading zero omitted, Abs format (unit mm)*
G04 Created by KiCad (PCBNEW 4.0.5) date Sunday, 09. April 2017 'u35' 15:35:46*
%MOMM*%
%LPD*%
G01*
G04 APERTURE LIST*
%ADD10C,0.100000*%
%ADD11C,0.150000*%
%ADD12R,0.650000X1.060000*%
%ADD13C,5.600000*%
%ADD14R,2.300000X2.500000*%
%ADD15R,1.700000X1.700000*%
%ADD16O,1.700000X1.700000*%
%ADD17R,0.700000X1.300000*%
%ADD18R,2.500000X1.000000*%
%ADD19R,1.000000X2.500000*%
%ADD20C,0.600000*%
%ADD21C,0.250000*%
%ADD22C,0.500000*%
%ADD23C,1.000000*%
%ADD24C,0.254000*%
G04 APERTURE END LIST*
D10*
D11*
X139000000Y-110000000D02*
G75*
G03X141000000Y-108000000I0J2000000D01*
G01*
X120000000Y-108000000D02*
G75*
G03X122000000Y-110000000I2000000J0D01*
G01*
X141000000Y-91000000D02*
G75*
G03X139000000Y-89000000I-2000000J0D01*
G01*
X122000000Y-89000000D02*
G75*
G03X120000000Y-91000000I0J-2000000D01*
G01*
X139000000Y-110000000D02*
X122000000Y-110000000D01*
X141000000Y-91000000D02*
X141000000Y-108000000D01*
X122000000Y-89000000D02*
X139000000Y-89000000D01*
X120000000Y-108000000D02*
X120000000Y-91000000D01*
D12*
X127950000Y-95400000D03*
X127000000Y-95400000D03*
X126050000Y-95400000D03*
X126050000Y-97600000D03*
X127950000Y-97600000D03*
X127000000Y-97600000D03*
D13*
X138000000Y-92000000D03*
X123000000Y-92000000D03*
D10*
G36*
X130881281Y-93502602D02*
X129997398Y-92618719D01*
X130704505Y-91911612D01*
X131588388Y-92795495D01*
X130881281Y-93502602D01*
X130881281Y-93502602D01*
G37*
G36*
X132295495Y-92088388D02*
X131411612Y-91204505D01*
X132118719Y-90497398D01*
X133002602Y-91381281D01*
X132295495Y-92088388D01*
X132295495Y-92088388D01*
G37*
D14*
X129500000Y-100230000D03*
X129500000Y-104530000D03*
D15*
X126350000Y-108095000D03*
D16*
X128890000Y-108095000D03*
X131430000Y-108095000D03*
X133970000Y-108095000D03*
D17*
X123950000Y-97500000D03*
X122050000Y-97500000D03*
X128705000Y-90950000D03*
X126805000Y-90950000D03*
X126805000Y-92855000D03*
X128705000Y-92855000D03*
D10*
G36*
X137848707Y-96606066D02*
X133606066Y-100848707D01*
X132191853Y-99434494D01*
X136434494Y-95191853D01*
X137848707Y-96606066D01*
X137848707Y-96606066D01*
G37*
G36*
X134808147Y-93565506D02*
X130565506Y-97808147D01*
X129151293Y-96393934D01*
X133393934Y-92151293D01*
X134808147Y-93565506D01*
X134808147Y-93565506D01*
G37*
D18*
X122500000Y-107500000D03*
X122500000Y-104500000D03*
X122500000Y-99500000D03*
X122500000Y-102500000D03*
X125500000Y-99500000D03*
X125500000Y-102500000D03*
D19*
X138500000Y-101500000D03*
X135500000Y-101500000D03*
X138500000Y-104500000D03*
X135500000Y-104500000D03*
D20*
X124500000Y-100500000D03*
X123500000Y-100500000D03*
X121500000Y-100500000D03*
X123500000Y-103500000D03*
X137000000Y-109000000D03*
X137000000Y-104500000D03*
X137000000Y-101500000D03*
X121000000Y-97000000D03*
X126500000Y-103500000D03*
X124500000Y-103500000D03*
X127500000Y-103500000D03*
X127500000Y-105500000D03*
X122000000Y-109000000D03*
X131500000Y-105500000D03*
X131500000Y-103500000D03*
X128000000Y-96500000D03*
X126000000Y-96500000D03*
X127000000Y-96500000D03*
X126000000Y-90000000D03*
X121000000Y-95000000D03*
X140000000Y-99000000D03*
X140000000Y-101000000D03*
X131000000Y-90000000D03*
X133000000Y-90000000D03*
X135000000Y-90000000D03*
X140000000Y-97000000D03*
X140000000Y-95000000D03*
X140000000Y-103000000D03*
X139000000Y-109000000D03*
X140000000Y-108000000D03*
X140000000Y-105000000D03*
X138645000Y-103000000D03*
X129500000Y-90950000D03*
X125000000Y-97600000D03*
D21*
X125500000Y-99500000D02*
X124500000Y-100500000D01*
X122500000Y-99500000D02*
X123500000Y-100500000D01*
X122500000Y-99500000D02*
X121500000Y-100500000D01*
D22*
X121425009Y-100200001D02*
X121125010Y-100500000D01*
X122000000Y-99625010D02*
X121425009Y-100200001D01*
X122000000Y-99500000D02*
X122000000Y-99625010D01*
D21*
X122050000Y-97500000D02*
X122050000Y-99450000D01*
X122050000Y-99450000D02*
X122000000Y-99500000D01*
X127000000Y-97600000D02*
X127000000Y-98380000D01*
X127000000Y-98380000D02*
X125880000Y-99500000D01*
X125880000Y-99500000D02*
X125500000Y-99500000D01*
D22*
X125500000Y-99500000D02*
X126500000Y-100500000D01*
X125500000Y-99500000D02*
X125500000Y-100500000D01*
X122000000Y-99500000D02*
X123000000Y-100500000D01*
X122000000Y-99500000D02*
X122000000Y-100500000D01*
D23*
X126350000Y-108095000D02*
X124845000Y-108095000D01*
X124845000Y-108095000D02*
X124250000Y-107500000D01*
X124250000Y-107500000D02*
X122000000Y-107500000D01*
D21*
X122500000Y-102500000D02*
X123500000Y-103500000D01*
X121000000Y-95000000D02*
X121000000Y-94000000D01*
X121000000Y-94000000D02*
X123000000Y-92000000D01*
X121000000Y-97000000D02*
X121000000Y-95000000D01*
X139000000Y-109000000D02*
X137000000Y-109000000D01*
X135500000Y-104500000D02*
X137000000Y-104500000D01*
X135500000Y-101500000D02*
X137000000Y-101500000D01*
X125500000Y-102500000D02*
X126500000Y-103500000D01*
X125500000Y-102500000D02*
X124500000Y-103500000D01*
X128100000Y-104530000D02*
X127500000Y-103930000D01*
X127500000Y-103930000D02*
X127500000Y-103500000D01*
X129500000Y-104530000D02*
X128100000Y-104530000D01*
X128100000Y-104530000D02*
X127500000Y-105130000D01*
X127500000Y-105130000D02*
X127500000Y-105500000D01*
X130900000Y-104530000D02*
X131500000Y-105130000D01*
X131500000Y-105130000D02*
X131500000Y-105500000D01*
X129500000Y-104530000D02*
X130900000Y-104530000D01*
X130900000Y-104530000D02*
X131500000Y-103930000D01*
X131500000Y-103930000D02*
X131500000Y-103500000D01*
X127000000Y-96500000D02*
X128000000Y-96500000D01*
X127000000Y-95400000D02*
X127000000Y-96500000D01*
X124000000Y-92000000D02*
X126000000Y-90000000D01*
X140000000Y-101000000D02*
X140000000Y-99000000D01*
X123000000Y-92000000D02*
X124000000Y-92000000D01*
X135000000Y-90000000D02*
X133000000Y-90000000D01*
X140000000Y-95000000D02*
X140000000Y-97000000D01*
X140000000Y-105000000D02*
X140000000Y-102000000D01*
X139000000Y-109000000D02*
X140000000Y-108000000D01*
D22*
X125945000Y-102205000D02*
X125715000Y-101975000D01*
X129175000Y-103895000D02*
X130415000Y-103895000D01*
X123175000Y-101975000D02*
X125715000Y-101975000D01*
X130368630Y-93806370D02*
X130368630Y-93131370D01*
X130368630Y-93131370D02*
X130792893Y-92707107D01*
X127950000Y-95400000D02*
X128775000Y-95400000D01*
X128775000Y-95400000D02*
X130368630Y-93806370D01*
D21*
X133914214Y-93414214D02*
X133500000Y-93828428D01*
X133914214Y-93000000D02*
X133914214Y-93414214D01*
D22*
X132207107Y-91292893D02*
X133914214Y-93000000D01*
X130710000Y-97130000D02*
X131810000Y-96030000D01*
X131810000Y-96030000D02*
X131810000Y-94110000D01*
X131810000Y-94110000D02*
X133065000Y-92855000D01*
X132065000Y-95650000D02*
X131810000Y-95395000D01*
X138645000Y-103650000D02*
X138645000Y-103000000D01*
X138645000Y-103000000D02*
X138645000Y-101745000D01*
D21*
X128705000Y-90950000D02*
X129500000Y-90950000D01*
X138645000Y-101110000D02*
X138645000Y-99800000D01*
X135020280Y-98020280D02*
X136865280Y-98020280D01*
X136865280Y-98020280D02*
X138645000Y-99800000D01*
D22*
X138645000Y-101110000D02*
X138645000Y-101745000D01*
X138645000Y-100475000D02*
X138645000Y-101110000D01*
X138645000Y-105960000D02*
X138645000Y-103650000D01*
X136510000Y-108095000D02*
X138645000Y-105960000D01*
X133970000Y-108095000D02*
X136510000Y-108095000D01*
D21*
X125000000Y-97600000D02*
X124050000Y-97600000D01*
X126050000Y-97600000D02*
X125000000Y-97600000D01*
X124050000Y-97600000D02*
X123950000Y-97500000D01*
X126805000Y-92855000D02*
X126805000Y-93755000D01*
X126050000Y-94510000D02*
X126050000Y-95400000D01*
X126805000Y-93755000D02*
X126050000Y-94510000D01*
X126805000Y-92855000D02*
X126805000Y-90950000D01*
X126805000Y-92520000D02*
X126805000Y-92220000D01*
D24*
G36*
X139587445Y-89581784D02*
X140085456Y-89914544D01*
X140418216Y-90412555D01*
X140544000Y-91044911D01*
X140544000Y-107955089D01*
X140418216Y-108587445D01*
X140085456Y-109085456D01*
X139587445Y-109418216D01*
X138955088Y-109544000D01*
X136091121Y-109544000D01*
X136130951Y-109512648D01*
X136168668Y-109478652D01*
X139632133Y-105910877D01*
X139677885Y-105853629D01*
X139782472Y-105693269D01*
X139837298Y-105558079D01*
X139873952Y-105370169D01*
X139881000Y-105297225D01*
X139881000Y-98207107D01*
X139877741Y-98157377D01*
X139860704Y-98027967D01*
X139834961Y-97931895D01*
X139785011Y-97811305D01*
X139735280Y-97725168D01*
X139655820Y-97621614D01*
X139622961Y-97584145D01*
X137915855Y-95877039D01*
X137858120Y-95829657D01*
X137695908Y-95721270D01*
X137558564Y-95664381D01*
X137431025Y-95639012D01*
X136709180Y-94917167D01*
X136590558Y-94836117D01*
X136492950Y-94814943D01*
X136489803Y-94810197D01*
X135189803Y-93510197D01*
X135184472Y-93506554D01*
X135168059Y-93419330D01*
X135082833Y-93290820D01*
X134984999Y-93192986D01*
X134891519Y-93044158D01*
X134846837Y-92986226D01*
X134031134Y-92116143D01*
X133985975Y-92075117D01*
X133859617Y-91977588D01*
X133752707Y-91919593D01*
X133711884Y-91905302D01*
X133352488Y-91545906D01*
X133358338Y-91537345D01*
X133391029Y-91386648D01*
X133362514Y-91235105D01*
X133277288Y-91106595D01*
X132393405Y-90222712D01*
X132274783Y-90141662D01*
X132124086Y-90108971D01*
X131972543Y-90137486D01*
X131844033Y-90222712D01*
X131136926Y-90929819D01*
X131055876Y-91048441D01*
X131023185Y-91199138D01*
X131051700Y-91350681D01*
X131136926Y-91479191D01*
X132020809Y-92363074D01*
X132139431Y-92444124D01*
X132290128Y-92476815D01*
X132406212Y-92454972D01*
X131953681Y-92907503D01*
X131976815Y-92800862D01*
X131948300Y-92649319D01*
X131863074Y-92520809D01*
X130979191Y-91636926D01*
X130860569Y-91555876D01*
X130709872Y-91523185D01*
X130558329Y-91551700D01*
X130429819Y-91636926D01*
X129722712Y-92344033D01*
X129641662Y-92462655D01*
X129608971Y-92613352D01*
X129637486Y-92764895D01*
X129722712Y-92893405D01*
X129774636Y-92945329D01*
X129737630Y-93131370D01*
X129737630Y-93545002D01*
X128604370Y-94678262D01*
X128553454Y-94599135D01*
X128426134Y-94512141D01*
X128275000Y-94481536D01*
X127625000Y-94481536D01*
X127483810Y-94508103D01*
X127354135Y-94591546D01*
X127267141Y-94718866D01*
X127236536Y-94870000D01*
X127236536Y-95930000D01*
X127263103Y-96071190D01*
X127346546Y-96200865D01*
X127473866Y-96287859D01*
X127625000Y-96318464D01*
X128275000Y-96318464D01*
X128416190Y-96291897D01*
X128545865Y-96208454D01*
X128632859Y-96081134D01*
X128643011Y-96031000D01*
X128775000Y-96031000D01*
X128843886Y-96017298D01*
X128203573Y-96657611D01*
X128167766Y-96681536D01*
X127625000Y-96681536D01*
X127483810Y-96708103D01*
X127476813Y-96712605D01*
X127476134Y-96712141D01*
X127325000Y-96681536D01*
X126675000Y-96681536D01*
X126533810Y-96708103D01*
X126526813Y-96712605D01*
X126526134Y-96712141D01*
X126375000Y-96681536D01*
X125725000Y-96681536D01*
X125583810Y-96708103D01*
X125454135Y-96791546D01*
X125367141Y-96918866D01*
X125349170Y-97007612D01*
X125136054Y-96919118D01*
X124865135Y-96918882D01*
X124688464Y-96991880D01*
X124688464Y-96850000D01*
X124661897Y-96708810D01*
X124578454Y-96579135D01*
X124451134Y-96492141D01*
X124300000Y-96461536D01*
X123600000Y-96461536D01*
X123458810Y-96488103D01*
X123329135Y-96571546D01*
X123242141Y-96698866D01*
X123211536Y-96850000D01*
X123211536Y-98119000D01*
X122788464Y-98119000D01*
X122788464Y-96850000D01*
X122761897Y-96708810D01*
X122678454Y-96579135D01*
X122551134Y-96492141D01*
X122400000Y-96461536D01*
X121700000Y-96461536D01*
X121558810Y-96488103D01*
X121429135Y-96571546D01*
X121342141Y-96698866D01*
X121311536Y-96850000D01*
X121311536Y-98119000D01*
X120500000Y-98119000D01*
X120456000Y-98123334D01*
X120456000Y-94870000D01*
X125336536Y-94870000D01*
X125336536Y-95930000D01*
X125363103Y-96071190D01*
X125446546Y-96200865D01*
X125573866Y-96287859D01*
X125725000Y-96318464D01*
X126375000Y-96318464D01*
X126516190Y-96291897D01*
X126645865Y-96208454D01*
X126732859Y-96081134D01*
X126763464Y-95930000D01*
X126763464Y-94870000D01*
X126736897Y-94728810D01*
X126662460Y-94613132D01*
X127162796Y-94112796D01*
X127272483Y-93948638D01*
X127288453Y-93868353D01*
X127296190Y-93866897D01*
X127425865Y-93783454D01*
X127512859Y-93656134D01*
X127543464Y-93505000D01*
X127543464Y-92205000D01*
X127516897Y-92063810D01*
X127433454Y-91934135D01*
X127387805Y-91902945D01*
X127425865Y-91878454D01*
X127512859Y-91751134D01*
X127543464Y-91600000D01*
X127543464Y-90300000D01*
X127966536Y-90300000D01*
X127966536Y-91600000D01*
X127993103Y-91741190D01*
X128076546Y-91870865D01*
X128203866Y-91957859D01*
X128355000Y-91988464D01*
X129055000Y-91988464D01*
X129196190Y-91961897D01*
X129325865Y-91878454D01*
X129412859Y-91751134D01*
X129437197Y-91630946D01*
X129634865Y-91631118D01*
X129885252Y-91527661D01*
X130076987Y-91336259D01*
X130180882Y-91086054D01*
X130181118Y-90815135D01*
X130077661Y-90564748D01*
X129886259Y-90373013D01*
X129636054Y-90269118D01*
X129437621Y-90268945D01*
X129416897Y-90158810D01*
X129333454Y-90029135D01*
X129206134Y-89942141D01*
X129055000Y-89911536D01*
X128355000Y-89911536D01*
X128213810Y-89938103D01*
X128084135Y-90021546D01*
X127997141Y-90148866D01*
X127966536Y-90300000D01*
X127543464Y-90300000D01*
X127516897Y-90158810D01*
X127433454Y-90029135D01*
X127306134Y-89942141D01*
X127155000Y-89911536D01*
X126455000Y-89911536D01*
X126313810Y-89938103D01*
X126184135Y-90021546D01*
X126097141Y-90148866D01*
X126066536Y-90300000D01*
X126066536Y-91600000D01*
X126093103Y-91741190D01*
X126176546Y-91870865D01*
X126222195Y-91902055D01*
X126184135Y-91926546D01*
X126097141Y-92053866D01*
X126066536Y-92205000D01*
X126066536Y-93505000D01*
X126093103Y-93646190D01*
X126134259Y-93710149D01*
X125692204Y-94152204D01*
X125582517Y-94316362D01*
X125544000Y-94510000D01*
X125544000Y-94533720D01*
X125454135Y-94591546D01*
X125367141Y-94718866D01*
X125336536Y-94870000D01*
X120456000Y-94870000D01*
X120456000Y-91044912D01*
X120581784Y-90412555D01*
X120914544Y-89914544D01*
X121412555Y-89581784D01*
X122044911Y-89456000D01*
X138955088Y-89456000D01*
X139587445Y-89581784D01*
X139587445Y-89581784D01*
G37*
X139587445Y-89581784D02*
X140085456Y-89914544D01*
X140418216Y-90412555D01*
X140544000Y-91044911D01*
X140544000Y-107955089D01*
X140418216Y-108587445D01*
X140085456Y-109085456D01*
X139587445Y-109418216D01*
X138955088Y-109544000D01*
X136091121Y-109544000D01*
X136130951Y-109512648D01*
X136168668Y-109478652D01*
X139632133Y-105910877D01*
X139677885Y-105853629D01*
X139782472Y-105693269D01*
X139837298Y-105558079D01*
X139873952Y-105370169D01*
X139881000Y-105297225D01*
X139881000Y-98207107D01*
X139877741Y-98157377D01*
X139860704Y-98027967D01*
X139834961Y-97931895D01*
X139785011Y-97811305D01*
X139735280Y-97725168D01*
X139655820Y-97621614D01*
X139622961Y-97584145D01*
X137915855Y-95877039D01*
X137858120Y-95829657D01*
X137695908Y-95721270D01*
X137558564Y-95664381D01*
X137431025Y-95639012D01*
X136709180Y-94917167D01*
X136590558Y-94836117D01*
X136492950Y-94814943D01*
X136489803Y-94810197D01*
X135189803Y-93510197D01*
X135184472Y-93506554D01*
X135168059Y-93419330D01*
X135082833Y-93290820D01*
X134984999Y-93192986D01*
X134891519Y-93044158D01*
X134846837Y-92986226D01*
X134031134Y-92116143D01*
X133985975Y-92075117D01*
X133859617Y-91977588D01*
X133752707Y-91919593D01*
X133711884Y-91905302D01*
X133352488Y-91545906D01*
X133358338Y-91537345D01*
X133391029Y-91386648D01*
X133362514Y-91235105D01*
X133277288Y-91106595D01*
X132393405Y-90222712D01*
X132274783Y-90141662D01*
X132124086Y-90108971D01*
X131972543Y-90137486D01*
X131844033Y-90222712D01*
X131136926Y-90929819D01*
X131055876Y-91048441D01*
X131023185Y-91199138D01*
X131051700Y-91350681D01*
X131136926Y-91479191D01*
X132020809Y-92363074D01*
X132139431Y-92444124D01*
X132290128Y-92476815D01*
X132406212Y-92454972D01*
X131953681Y-92907503D01*
X131976815Y-92800862D01*
X131948300Y-92649319D01*
X131863074Y-92520809D01*
X130979191Y-91636926D01*
X130860569Y-91555876D01*
X130709872Y-91523185D01*
X130558329Y-91551700D01*
X130429819Y-91636926D01*
X129722712Y-92344033D01*
X129641662Y-92462655D01*
X129608971Y-92613352D01*
X129637486Y-92764895D01*
X129722712Y-92893405D01*
X129774636Y-92945329D01*
X129737630Y-93131370D01*
X129737630Y-93545002D01*
X128604370Y-94678262D01*
X128553454Y-94599135D01*
X128426134Y-94512141D01*
X128275000Y-94481536D01*
X127625000Y-94481536D01*
X127483810Y-94508103D01*
X127354135Y-94591546D01*
X127267141Y-94718866D01*
X127236536Y-94870000D01*
X127236536Y-95930000D01*
X127263103Y-96071190D01*
X127346546Y-96200865D01*
X127473866Y-96287859D01*
X127625000Y-96318464D01*
X128275000Y-96318464D01*
X128416190Y-96291897D01*
X128545865Y-96208454D01*
X128632859Y-96081134D01*
X128643011Y-96031000D01*
X128775000Y-96031000D01*
X128843886Y-96017298D01*
X128203573Y-96657611D01*
X128167766Y-96681536D01*
X127625000Y-96681536D01*
X127483810Y-96708103D01*
X127476813Y-96712605D01*
X127476134Y-96712141D01*
X127325000Y-96681536D01*
X126675000Y-96681536D01*
X126533810Y-96708103D01*
X126526813Y-96712605D01*
X126526134Y-96712141D01*
X126375000Y-96681536D01*
X125725000Y-96681536D01*
X125583810Y-96708103D01*
X125454135Y-96791546D01*
X125367141Y-96918866D01*
X125349170Y-97007612D01*
X125136054Y-96919118D01*
X124865135Y-96918882D01*
X124688464Y-96991880D01*
X124688464Y-96850000D01*
X124661897Y-96708810D01*
X124578454Y-96579135D01*
X124451134Y-96492141D01*
X124300000Y-96461536D01*
X123600000Y-96461536D01*
X123458810Y-96488103D01*
X123329135Y-96571546D01*
X123242141Y-96698866D01*
X123211536Y-96850000D01*
X123211536Y-98119000D01*
X122788464Y-98119000D01*
X122788464Y-96850000D01*
X122761897Y-96708810D01*
X122678454Y-96579135D01*
X122551134Y-96492141D01*
X122400000Y-96461536D01*
X121700000Y-96461536D01*
X121558810Y-96488103D01*
X121429135Y-96571546D01*
X121342141Y-96698866D01*
X121311536Y-96850000D01*
X121311536Y-98119000D01*
X120500000Y-98119000D01*
X120456000Y-98123334D01*
X120456000Y-94870000D01*
X125336536Y-94870000D01*
X125336536Y-95930000D01*
X125363103Y-96071190D01*
X125446546Y-96200865D01*
X125573866Y-96287859D01*
X125725000Y-96318464D01*
X126375000Y-96318464D01*
X126516190Y-96291897D01*
X126645865Y-96208454D01*
X126732859Y-96081134D01*
X126763464Y-95930000D01*
X126763464Y-94870000D01*
X126736897Y-94728810D01*
X126662460Y-94613132D01*
X127162796Y-94112796D01*
X127272483Y-93948638D01*
X127288453Y-93868353D01*
X127296190Y-93866897D01*
X127425865Y-93783454D01*
X127512859Y-93656134D01*
X127543464Y-93505000D01*
X127543464Y-92205000D01*
X127516897Y-92063810D01*
X127433454Y-91934135D01*
X127387805Y-91902945D01*
X127425865Y-91878454D01*
X127512859Y-91751134D01*
X127543464Y-91600000D01*
X127543464Y-90300000D01*
X127966536Y-90300000D01*
X127966536Y-91600000D01*
X127993103Y-91741190D01*
X128076546Y-91870865D01*
X128203866Y-91957859D01*
X128355000Y-91988464D01*
X129055000Y-91988464D01*
X129196190Y-91961897D01*
X129325865Y-91878454D01*
X129412859Y-91751134D01*
X129437197Y-91630946D01*
X129634865Y-91631118D01*
X129885252Y-91527661D01*
X130076987Y-91336259D01*
X130180882Y-91086054D01*
X130181118Y-90815135D01*
X130077661Y-90564748D01*
X129886259Y-90373013D01*
X129636054Y-90269118D01*
X129437621Y-90268945D01*
X129416897Y-90158810D01*
X129333454Y-90029135D01*
X129206134Y-89942141D01*
X129055000Y-89911536D01*
X128355000Y-89911536D01*
X128213810Y-89938103D01*
X128084135Y-90021546D01*
X127997141Y-90148866D01*
X127966536Y-90300000D01*
X127543464Y-90300000D01*
X127516897Y-90158810D01*
X127433454Y-90029135D01*
X127306134Y-89942141D01*
X127155000Y-89911536D01*
X126455000Y-89911536D01*
X126313810Y-89938103D01*
X126184135Y-90021546D01*
X126097141Y-90148866D01*
X126066536Y-90300000D01*
X126066536Y-91600000D01*
X126093103Y-91741190D01*
X126176546Y-91870865D01*
X126222195Y-91902055D01*
X126184135Y-91926546D01*
X126097141Y-92053866D01*
X126066536Y-92205000D01*
X126066536Y-93505000D01*
X126093103Y-93646190D01*
X126134259Y-93710149D01*
X125692204Y-94152204D01*
X125582517Y-94316362D01*
X125544000Y-94510000D01*
X125544000Y-94533720D01*
X125454135Y-94591546D01*
X125367141Y-94718866D01*
X125336536Y-94870000D01*
X120456000Y-94870000D01*
X120456000Y-91044912D01*
X120581784Y-90412555D01*
X120914544Y-89914544D01*
X121412555Y-89581784D01*
X122044911Y-89456000D01*
X138955088Y-89456000D01*
X139587445Y-89581784D01*
G36*
X131803426Y-99429127D02*
X131831941Y-99580670D01*
X131917167Y-99709180D01*
X133331380Y-101123393D01*
X133450002Y-101204443D01*
X133600699Y-101237134D01*
X133752242Y-101208619D01*
X133880752Y-101123393D01*
X135123145Y-99881000D01*
X136755369Y-99881000D01*
X136835574Y-99896954D01*
X136903573Y-99942389D01*
X137320571Y-100359387D01*
X137365853Y-100427011D01*
X137381969Y-100506789D01*
X137398076Y-104561146D01*
X137390993Y-104616362D01*
X137379436Y-104644421D01*
X137345577Y-104688607D01*
X135651573Y-106382611D01*
X135583574Y-106428046D01*
X135503369Y-106444000D01*
X133327000Y-106444000D01*
X133252671Y-106451321D01*
X133061329Y-106489381D01*
X132923984Y-106546271D01*
X132761773Y-106654658D01*
X132656658Y-106759773D01*
X132548271Y-106921984D01*
X132491381Y-107059329D01*
X132453321Y-107250671D01*
X132446000Y-107325000D01*
X132446000Y-108865000D01*
X132453321Y-108939329D01*
X132491381Y-109130671D01*
X132548271Y-109268016D01*
X132656658Y-109430227D01*
X132761773Y-109535342D01*
X132774730Y-109544000D01*
X122044911Y-109544000D01*
X121412555Y-109418216D01*
X120914544Y-109085456D01*
X120581784Y-108587445D01*
X120456000Y-107955088D01*
X120456000Y-107000000D01*
X120861536Y-107000000D01*
X120861536Y-108000000D01*
X120888103Y-108141190D01*
X120971546Y-108270865D01*
X121098866Y-108357859D01*
X121250000Y-108388464D01*
X123750000Y-108388464D01*
X123789667Y-108381000D01*
X123885078Y-108381000D01*
X124222039Y-108717961D01*
X124507856Y-108908938D01*
X124845000Y-108976000D01*
X125117369Y-108976000D01*
X125138103Y-109086190D01*
X125221546Y-109215865D01*
X125348866Y-109302859D01*
X125500000Y-109333464D01*
X127200000Y-109333464D01*
X127341190Y-109306897D01*
X127470865Y-109223454D01*
X127557859Y-109096134D01*
X127588464Y-108945000D01*
X127588464Y-108070883D01*
X127659000Y-108070883D01*
X127659000Y-108119117D01*
X127752704Y-108590200D01*
X128019552Y-108989565D01*
X128418917Y-109256413D01*
X128890000Y-109350117D01*
X129361083Y-109256413D01*
X129760448Y-108989565D01*
X130027296Y-108590200D01*
X130121000Y-108119117D01*
X130121000Y-108070883D01*
X130027296Y-107599800D01*
X129760448Y-107200435D01*
X129361083Y-106933587D01*
X128890000Y-106839883D01*
X128418917Y-106933587D01*
X128019552Y-107200435D01*
X127752704Y-107599800D01*
X127659000Y-108070883D01*
X127588464Y-108070883D01*
X127588464Y-107245000D01*
X127561897Y-107103810D01*
X127478454Y-106974135D01*
X127351134Y-106887141D01*
X127200000Y-106856536D01*
X125500000Y-106856536D01*
X125358810Y-106883103D01*
X125229135Y-106966546D01*
X125142141Y-107093866D01*
X125133325Y-107137403D01*
X124872961Y-106877039D01*
X124587144Y-106686062D01*
X124250000Y-106619000D01*
X123786859Y-106619000D01*
X123750000Y-106611536D01*
X121250000Y-106611536D01*
X121108810Y-106638103D01*
X120979135Y-106721546D01*
X120892141Y-106848866D01*
X120861536Y-107000000D01*
X120456000Y-107000000D01*
X120456000Y-101376666D01*
X120500000Y-101381000D01*
X127000000Y-101381000D01*
X127074329Y-101373679D01*
X127265671Y-101335619D01*
X127403016Y-101278729D01*
X127565227Y-101170342D01*
X127670342Y-101065227D01*
X127778729Y-100903016D01*
X127819000Y-100805793D01*
X127819000Y-101100000D01*
X127826321Y-101174329D01*
X127864381Y-101365671D01*
X127921271Y-101503016D01*
X127983348Y-101595920D01*
X127988103Y-101621190D01*
X128071546Y-101750865D01*
X128198866Y-101837859D01*
X128251887Y-101848596D01*
X128296984Y-101878729D01*
X128434329Y-101935619D01*
X128625671Y-101973679D01*
X128700000Y-101981000D01*
X130300000Y-101981000D01*
X130374329Y-101973679D01*
X130565671Y-101935619D01*
X130703016Y-101878729D01*
X130745182Y-101850554D01*
X130791190Y-101841897D01*
X130920865Y-101758454D01*
X131007859Y-101631134D01*
X131014267Y-101599489D01*
X131078729Y-101503016D01*
X131135619Y-101365671D01*
X131173679Y-101174329D01*
X131181000Y-101100000D01*
X131181000Y-99427000D01*
X131803887Y-99427000D01*
X131803426Y-99429127D01*
X131803426Y-99429127D01*
G37*
X131803426Y-99429127D02*
X131831941Y-99580670D01*
X131917167Y-99709180D01*
X133331380Y-101123393D01*
X133450002Y-101204443D01*
X133600699Y-101237134D01*
X133752242Y-101208619D01*
X133880752Y-101123393D01*
X135123145Y-99881000D01*
X136755369Y-99881000D01*
X136835574Y-99896954D01*
X136903573Y-99942389D01*
X137320571Y-100359387D01*
X137365853Y-100427011D01*
X137381969Y-100506789D01*
X137398076Y-104561146D01*
X137390993Y-104616362D01*
X137379436Y-104644421D01*
X137345577Y-104688607D01*
X135651573Y-106382611D01*
X135583574Y-106428046D01*
X135503369Y-106444000D01*
X133327000Y-106444000D01*
X133252671Y-106451321D01*
X133061329Y-106489381D01*
X132923984Y-106546271D01*
X132761773Y-106654658D01*
X132656658Y-106759773D01*
X132548271Y-106921984D01*
X132491381Y-107059329D01*
X132453321Y-107250671D01*
X132446000Y-107325000D01*
X132446000Y-108865000D01*
X132453321Y-108939329D01*
X132491381Y-109130671D01*
X132548271Y-109268016D01*
X132656658Y-109430227D01*
X132761773Y-109535342D01*
X132774730Y-109544000D01*
X122044911Y-109544000D01*
X121412555Y-109418216D01*
X120914544Y-109085456D01*
X120581784Y-108587445D01*
X120456000Y-107955088D01*
X120456000Y-107000000D01*
X120861536Y-107000000D01*
X120861536Y-108000000D01*
X120888103Y-108141190D01*
X120971546Y-108270865D01*
X121098866Y-108357859D01*
X121250000Y-108388464D01*
X123750000Y-108388464D01*
X123789667Y-108381000D01*
X123885078Y-108381000D01*
X124222039Y-108717961D01*
X124507856Y-108908938D01*
X124845000Y-108976000D01*
X125117369Y-108976000D01*
X125138103Y-109086190D01*
X125221546Y-109215865D01*
X125348866Y-109302859D01*
X125500000Y-109333464D01*
X127200000Y-109333464D01*
X127341190Y-109306897D01*
X127470865Y-109223454D01*
X127557859Y-109096134D01*
X127588464Y-108945000D01*
X127588464Y-108070883D01*
X127659000Y-108070883D01*
X127659000Y-108119117D01*
X127752704Y-108590200D01*
X128019552Y-108989565D01*
X128418917Y-109256413D01*
X128890000Y-109350117D01*
X129361083Y-109256413D01*
X129760448Y-108989565D01*
X130027296Y-108590200D01*
X130121000Y-108119117D01*
X130121000Y-108070883D01*
X130027296Y-107599800D01*
X129760448Y-107200435D01*
X129361083Y-106933587D01*
X128890000Y-106839883D01*
X128418917Y-106933587D01*
X128019552Y-107200435D01*
X127752704Y-107599800D01*
X127659000Y-108070883D01*
X127588464Y-108070883D01*
X127588464Y-107245000D01*
X127561897Y-107103810D01*
X127478454Y-106974135D01*
X127351134Y-106887141D01*
X127200000Y-106856536D01*
X125500000Y-106856536D01*
X125358810Y-106883103D01*
X125229135Y-106966546D01*
X125142141Y-107093866D01*
X125133325Y-107137403D01*
X124872961Y-106877039D01*
X124587144Y-106686062D01*
X124250000Y-106619000D01*
X123786859Y-106619000D01*
X123750000Y-106611536D01*
X121250000Y-106611536D01*
X121108810Y-106638103D01*
X120979135Y-106721546D01*
X120892141Y-106848866D01*
X120861536Y-107000000D01*
X120456000Y-107000000D01*
X120456000Y-101376666D01*
X120500000Y-101381000D01*
X127000000Y-101381000D01*
X127074329Y-101373679D01*
X127265671Y-101335619D01*
X127403016Y-101278729D01*
X127565227Y-101170342D01*
X127670342Y-101065227D01*
X127778729Y-100903016D01*
X127819000Y-100805793D01*
X127819000Y-101100000D01*
X127826321Y-101174329D01*
X127864381Y-101365671D01*
X127921271Y-101503016D01*
X127983348Y-101595920D01*
X127988103Y-101621190D01*
X128071546Y-101750865D01*
X128198866Y-101837859D01*
X128251887Y-101848596D01*
X128296984Y-101878729D01*
X128434329Y-101935619D01*
X128625671Y-101973679D01*
X128700000Y-101981000D01*
X130300000Y-101981000D01*
X130374329Y-101973679D01*
X130565671Y-101935619D01*
X130703016Y-101878729D01*
X130745182Y-101850554D01*
X130791190Y-101841897D01*
X130920865Y-101758454D01*
X131007859Y-101631134D01*
X131014267Y-101599489D01*
X131078729Y-101503016D01*
X131135619Y-101365671D01*
X131173679Y-101174329D01*
X131181000Y-101100000D01*
X131181000Y-99427000D01*
X131803887Y-99427000D01*
X131803426Y-99429127D01*
G36*
X133453585Y-92353109D02*
X133565481Y-92392280D01*
X133667504Y-92471026D01*
X134467855Y-93324733D01*
X134549847Y-93455271D01*
X134574680Y-93594754D01*
X134545363Y-93733362D01*
X134459204Y-93861190D01*
X130856644Y-97463750D01*
X130840850Y-97482995D01*
X130732463Y-97645207D01*
X130713500Y-97690989D01*
X130675440Y-97882331D01*
X130673000Y-97907107D01*
X130673000Y-101087491D01*
X130642308Y-101241790D01*
X130561991Y-101361991D01*
X130441790Y-101442308D01*
X130287491Y-101473000D01*
X128712509Y-101473000D01*
X128558210Y-101442308D01*
X128438009Y-101361991D01*
X128357692Y-101241790D01*
X128327000Y-101087491D01*
X128327000Y-99089109D01*
X128325856Y-99072105D01*
X128307928Y-98939413D01*
X128298903Y-98906621D01*
X128246403Y-98783446D01*
X128228999Y-98754227D01*
X128145693Y-98649400D01*
X128134217Y-98636799D01*
X127847851Y-98361889D01*
X127780531Y-98277177D01*
X127741486Y-98185569D01*
X127727000Y-98078354D01*
X127727000Y-97462509D01*
X127746274Y-97365613D01*
X127794075Y-97294075D01*
X127865613Y-97246274D01*
X127962509Y-97227000D01*
X128092893Y-97227000D01*
X128117669Y-97224560D01*
X128309011Y-97186500D01*
X128354793Y-97167537D01*
X128517005Y-97059150D01*
X128536250Y-97043356D01*
X133117448Y-92462158D01*
X133221961Y-92386739D01*
X133335056Y-92351198D01*
X133453585Y-92353109D01*
X133453585Y-92353109D01*
G37*
X133453585Y-92353109D02*
X133565481Y-92392280D01*
X133667504Y-92471026D01*
X134467855Y-93324733D01*
X134549847Y-93455271D01*
X134574680Y-93594754D01*
X134545363Y-93733362D01*
X134459204Y-93861190D01*
X130856644Y-97463750D01*
X130840850Y-97482995D01*
X130732463Y-97645207D01*
X130713500Y-97690989D01*
X130675440Y-97882331D01*
X130673000Y-97907107D01*
X130673000Y-101087491D01*
X130642308Y-101241790D01*
X130561991Y-101361991D01*
X130441790Y-101442308D01*
X130287491Y-101473000D01*
X128712509Y-101473000D01*
X128558210Y-101442308D01*
X128438009Y-101361991D01*
X128357692Y-101241790D01*
X128327000Y-101087491D01*
X128327000Y-99089109D01*
X128325856Y-99072105D01*
X128307928Y-98939413D01*
X128298903Y-98906621D01*
X128246403Y-98783446D01*
X128228999Y-98754227D01*
X128145693Y-98649400D01*
X128134217Y-98636799D01*
X127847851Y-98361889D01*
X127780531Y-98277177D01*
X127741486Y-98185569D01*
X127727000Y-98078354D01*
X127727000Y-97462509D01*
X127746274Y-97365613D01*
X127794075Y-97294075D01*
X127865613Y-97246274D01*
X127962509Y-97227000D01*
X128092893Y-97227000D01*
X128117669Y-97224560D01*
X128309011Y-97186500D01*
X128354793Y-97167537D01*
X128517005Y-97059150D01*
X128536250Y-97043356D01*
X133117448Y-92462158D01*
X133221961Y-92386739D01*
X133335056Y-92351198D01*
X133453585Y-92353109D01*
G36*
X137434681Y-96157691D02*
X137565489Y-96245095D01*
X139257866Y-97937472D01*
X139322078Y-98021155D01*
X139359231Y-98110850D01*
X139373000Y-98215435D01*
X139373000Y-98734185D01*
X139319118Y-98863946D01*
X139318882Y-99134865D01*
X139373000Y-99265842D01*
X139373000Y-100734185D01*
X139319118Y-100863946D01*
X139318882Y-101134865D01*
X139373000Y-101265842D01*
X139373000Y-102734185D01*
X139319118Y-102863946D01*
X139318882Y-103134865D01*
X139373000Y-103265842D01*
X139373000Y-104734185D01*
X139319118Y-104863946D01*
X139318882Y-105134865D01*
X139373000Y-105265842D01*
X139373000Y-105284952D01*
X139343437Y-105436508D01*
X139259089Y-105565836D01*
X135810076Y-109118724D01*
X135725641Y-109185187D01*
X135634554Y-109223711D01*
X135528054Y-109238000D01*
X133339509Y-109238000D01*
X133185210Y-109207308D01*
X133065009Y-109126991D01*
X132984692Y-109006790D01*
X132954000Y-108852491D01*
X132954000Y-107337509D01*
X132984692Y-107183210D01*
X133065009Y-107063009D01*
X133185210Y-106982692D01*
X133339509Y-106952000D01*
X135540893Y-106952000D01*
X135565669Y-106949560D01*
X135757011Y-106911500D01*
X135802793Y-106892537D01*
X135965005Y-106784150D01*
X135984250Y-106768356D01*
X137722533Y-105030073D01*
X137733537Y-105017516D01*
X137813327Y-104913389D01*
X137829949Y-104884511D01*
X137879910Y-104763215D01*
X137888449Y-104731007D01*
X137905141Y-104600890D01*
X137906172Y-104584225D01*
X137889817Y-100467438D01*
X137887303Y-100442796D01*
X137848866Y-100252523D01*
X137829907Y-100207008D01*
X137721901Y-100045713D01*
X137706178Y-100026572D01*
X137236250Y-99556644D01*
X137217005Y-99540850D01*
X137054793Y-99432463D01*
X137009011Y-99413500D01*
X136817669Y-99375440D01*
X136792893Y-99373000D01*
X134512509Y-99373000D01*
X134358210Y-99342308D01*
X134238009Y-99261991D01*
X134157692Y-99141790D01*
X134127000Y-98987491D01*
X134127000Y-98219616D01*
X134157691Y-98065319D01*
X134245095Y-97934511D01*
X135934511Y-96245095D01*
X136065319Y-96157691D01*
X136219616Y-96127000D01*
X137280384Y-96127000D01*
X137434681Y-96157691D01*
X137434681Y-96157691D01*
G37*
X137434681Y-96157691D02*
X137565489Y-96245095D01*
X139257866Y-97937472D01*
X139322078Y-98021155D01*
X139359231Y-98110850D01*
X139373000Y-98215435D01*
X139373000Y-98734185D01*
X139319118Y-98863946D01*
X139318882Y-99134865D01*
X139373000Y-99265842D01*
X139373000Y-100734185D01*
X139319118Y-100863946D01*
X139318882Y-101134865D01*
X139373000Y-101265842D01*
X139373000Y-102734185D01*
X139319118Y-102863946D01*
X139318882Y-103134865D01*
X139373000Y-103265842D01*
X139373000Y-104734185D01*
X139319118Y-104863946D01*
X139318882Y-105134865D01*
X139373000Y-105265842D01*
X139373000Y-105284952D01*
X139343437Y-105436508D01*
X139259089Y-105565836D01*
X135810076Y-109118724D01*
X135725641Y-109185187D01*
X135634554Y-109223711D01*
X135528054Y-109238000D01*
X133339509Y-109238000D01*
X133185210Y-109207308D01*
X133065009Y-109126991D01*
X132984692Y-109006790D01*
X132954000Y-108852491D01*
X132954000Y-107337509D01*
X132984692Y-107183210D01*
X133065009Y-107063009D01*
X133185210Y-106982692D01*
X133339509Y-106952000D01*
X135540893Y-106952000D01*
X135565669Y-106949560D01*
X135757011Y-106911500D01*
X135802793Y-106892537D01*
X135965005Y-106784150D01*
X135984250Y-106768356D01*
X137722533Y-105030073D01*
X137733537Y-105017516D01*
X137813327Y-104913389D01*
X137829949Y-104884511D01*
X137879910Y-104763215D01*
X137888449Y-104731007D01*
X137905141Y-104600890D01*
X137906172Y-104584225D01*
X137889817Y-100467438D01*
X137887303Y-100442796D01*
X137848866Y-100252523D01*
X137829907Y-100207008D01*
X137721901Y-100045713D01*
X137706178Y-100026572D01*
X137236250Y-99556644D01*
X137217005Y-99540850D01*
X137054793Y-99432463D01*
X137009011Y-99413500D01*
X136817669Y-99375440D01*
X136792893Y-99373000D01*
X134512509Y-99373000D01*
X134358210Y-99342308D01*
X134238009Y-99261991D01*
X134157692Y-99141790D01*
X134127000Y-98987491D01*
X134127000Y-98219616D01*
X134157691Y-98065319D01*
X134245095Y-97934511D01*
X135934511Y-96245095D01*
X136065319Y-96157691D01*
X136219616Y-96127000D01*
X137280384Y-96127000D01*
X137434681Y-96157691D01*
G36*
X127141790Y-97657692D02*
X127219000Y-97709283D01*
X127219000Y-98086891D01*
X127222431Y-98137904D01*
X127240359Y-98270596D01*
X127267436Y-98368971D01*
X127319936Y-98492146D01*
X127372147Y-98579802D01*
X127373000Y-98580875D01*
X127373000Y-100487491D01*
X127342308Y-100641790D01*
X127261991Y-100761991D01*
X127141790Y-100842308D01*
X126987491Y-100873000D01*
X120512509Y-100873000D01*
X120456000Y-100861760D01*
X120456000Y-98638240D01*
X120512509Y-98627000D01*
X126000000Y-98627000D01*
X126024776Y-98624560D01*
X126216118Y-98586500D01*
X126261900Y-98567536D01*
X126335341Y-98518464D01*
X126375000Y-98518464D01*
X126516190Y-98491897D01*
X126645865Y-98408454D01*
X126732859Y-98281134D01*
X126763464Y-98130000D01*
X126763464Y-97721000D01*
X126858210Y-97657692D01*
X127000000Y-97629488D01*
X127141790Y-97657692D01*
X127141790Y-97657692D01*
G37*
X127141790Y-97657692D02*
X127219000Y-97709283D01*
X127219000Y-98086891D01*
X127222431Y-98137904D01*
X127240359Y-98270596D01*
X127267436Y-98368971D01*
X127319936Y-98492146D01*
X127372147Y-98579802D01*
X127373000Y-98580875D01*
X127373000Y-100487491D01*
X127342308Y-100641790D01*
X127261991Y-100761991D01*
X127141790Y-100842308D01*
X126987491Y-100873000D01*
X120512509Y-100873000D01*
X120456000Y-100861760D01*
X120456000Y-98638240D01*
X120512509Y-98627000D01*
X126000000Y-98627000D01*
X126024776Y-98624560D01*
X126216118Y-98586500D01*
X126261900Y-98567536D01*
X126335341Y-98518464D01*
X126375000Y-98518464D01*
X126516190Y-98491897D01*
X126645865Y-98408454D01*
X126732859Y-98281134D01*
X126763464Y-98130000D01*
X126763464Y-97721000D01*
X126858210Y-97657692D01*
X127000000Y-97629488D01*
X127141790Y-97657692D01*
M02*
