G04 #@! TF.FileFunction,Legend,Top*
%FSLAX46Y46*%
G04 Gerber Fmt 4.6, Leading zero omitted, Abs format (unit mm)*
G04 Created by KiCad (PCBNEW 4.0.5) date Sunday, 09. April 2017 'u35' 15:35:46*
%MOMM*%
%LPD*%
G01*
G04 APERTURE LIST*
%ADD10C,0.100000*%
%ADD11C,0.200000*%
%ADD12C,0.150000*%
%ADD13C,0.120000*%
G04 APERTURE END LIST*
D10*
D11*
X125715000Y-94125000D02*
X126350000Y-93490000D01*
D12*
X139000000Y-110000000D02*
G75*
G03X141000000Y-108000000I0J2000000D01*
G01*
X120000000Y-108000000D02*
G75*
G03X122000000Y-110000000I2000000J0D01*
G01*
X141000000Y-91000000D02*
G75*
G03X139000000Y-89000000I-2000000J0D01*
G01*
X122000000Y-89000000D02*
G75*
G03X120000000Y-91000000I0J-2000000D01*
G01*
X139000000Y-110000000D02*
X122000000Y-110000000D01*
X141000000Y-91000000D02*
X141000000Y-108000000D01*
X122000000Y-89000000D02*
X139000000Y-89000000D01*
X120000000Y-108000000D02*
X120000000Y-91000000D01*
D13*
X125390000Y-95600000D02*
X125390000Y-97400000D01*
X128610000Y-97400000D02*
X128610000Y-94950000D01*
X131252513Y-91045406D02*
X130545406Y-91752513D01*
X131747487Y-92954594D02*
X132454594Y-92247487D01*
X131650000Y-98830000D02*
X127350000Y-98830000D01*
X127350000Y-98830000D02*
X127350000Y-104530000D01*
X131650000Y-98830000D02*
X131650000Y-104530000D01*
X127620000Y-109425000D02*
X135300000Y-109425000D01*
X135300000Y-109425000D02*
X135300000Y-106765000D01*
X135300000Y-106765000D02*
X127620000Y-106765000D01*
X127620000Y-106765000D02*
X127620000Y-109425000D01*
X126350000Y-109425000D02*
X125020000Y-109425000D01*
X125020000Y-109425000D02*
X125020000Y-108095000D01*
X122400000Y-96620000D02*
X123600000Y-96620000D01*
X123600000Y-98380000D02*
X122400000Y-98380000D01*
X127155000Y-90070000D02*
X128355000Y-90070000D01*
X128355000Y-91830000D02*
X127155000Y-91830000D01*
X128355000Y-93735000D02*
X127155000Y-93735000D01*
X127155000Y-91975000D02*
X128355000Y-91975000D01*
X121020000Y-105000000D02*
X121020000Y-107000000D01*
X123980000Y-107000000D02*
X123980000Y-105000000D01*
X123980000Y-102000000D02*
X123980000Y-100000000D01*
X121020000Y-100000000D02*
X121020000Y-102000000D01*
X126980000Y-102000000D02*
X126980000Y-100000000D01*
X124020000Y-100000000D02*
X124020000Y-102000000D01*
X136000000Y-102980000D02*
X138000000Y-102980000D01*
X138000000Y-100020000D02*
X136000000Y-100020000D01*
X136000000Y-105980000D02*
X138000000Y-105980000D01*
X138000000Y-103020000D02*
X136000000Y-103020000D01*
D12*
X123912381Y-96261905D02*
X124721905Y-96261905D01*
X124817143Y-96214286D01*
X124864762Y-96166667D01*
X124912381Y-96071429D01*
X124912381Y-95880952D01*
X124864762Y-95785714D01*
X124817143Y-95738095D01*
X124721905Y-95690476D01*
X123912381Y-95690476D01*
X124912381Y-94690476D02*
X124912381Y-95261905D01*
X124912381Y-94976191D02*
X123912381Y-94976191D01*
X124055238Y-95071429D01*
X124150476Y-95166667D01*
X124198095Y-95261905D01*
X134134688Y-91370389D02*
X134134688Y-91437732D01*
X134067344Y-91572419D01*
X134000001Y-91639763D01*
X133865313Y-91707107D01*
X133730626Y-91707107D01*
X133629611Y-91673435D01*
X133461253Y-91572420D01*
X133360237Y-91471404D01*
X133259222Y-91303045D01*
X133225550Y-91202030D01*
X133225550Y-91067343D01*
X133292894Y-90932656D01*
X133360237Y-90865312D01*
X133494924Y-90797969D01*
X133562268Y-90797969D01*
X134134688Y-90090862D02*
X133797970Y-90427580D01*
X134101015Y-90797969D01*
X134101015Y-90730626D01*
X134134687Y-90629610D01*
X134303046Y-90461251D01*
X134404061Y-90427579D01*
X134471405Y-90427579D01*
X134572421Y-90461252D01*
X134740779Y-90629610D01*
X134774451Y-90730626D01*
X134774451Y-90797969D01*
X134740779Y-90898984D01*
X134572420Y-91067343D01*
X134471405Y-91101015D01*
X134404061Y-91101015D01*
X132952381Y-103238095D02*
X131952381Y-103238095D01*
X131952381Y-103000000D01*
X132000000Y-102857142D01*
X132095238Y-102761904D01*
X132190476Y-102714285D01*
X132380952Y-102666666D01*
X132523810Y-102666666D01*
X132714286Y-102714285D01*
X132809524Y-102761904D01*
X132904762Y-102857142D01*
X132952381Y-103000000D01*
X132952381Y-103238095D01*
X132952381Y-101714285D02*
X132952381Y-102285714D01*
X132952381Y-102000000D02*
X131952381Y-102000000D01*
X132095238Y-102095238D01*
X132190476Y-102190476D01*
X132238095Y-102285714D01*
X124761905Y-105952381D02*
X124761905Y-104952381D01*
X125142858Y-104952381D01*
X125238096Y-105000000D01*
X125285715Y-105047619D01*
X125333334Y-105142857D01*
X125333334Y-105285714D01*
X125285715Y-105380952D01*
X125238096Y-105428571D01*
X125142858Y-105476190D01*
X124761905Y-105476190D01*
X126285715Y-105952381D02*
X125714286Y-105952381D01*
X126000000Y-105952381D02*
X126000000Y-104952381D01*
X125904762Y-105095238D01*
X125809524Y-105190476D01*
X125714286Y-105238095D01*
X122333334Y-96452381D02*
X122000000Y-95976190D01*
X121761905Y-96452381D02*
X121761905Y-95452381D01*
X122142858Y-95452381D01*
X122238096Y-95500000D01*
X122285715Y-95547619D01*
X122333334Y-95642857D01*
X122333334Y-95785714D01*
X122285715Y-95880952D01*
X122238096Y-95928571D01*
X122142858Y-95976190D01*
X121761905Y-95976190D01*
X123285715Y-96452381D02*
X122714286Y-96452381D01*
X123000000Y-96452381D02*
X123000000Y-95452381D01*
X122904762Y-95595238D01*
X122809524Y-95690476D01*
X122714286Y-95738095D01*
X130333334Y-91402381D02*
X130000000Y-90926190D01*
X129761905Y-91402381D02*
X129761905Y-90402381D01*
X130142858Y-90402381D01*
X130238096Y-90450000D01*
X130285715Y-90497619D01*
X130333334Y-90592857D01*
X130333334Y-90735714D01*
X130285715Y-90830952D01*
X130238096Y-90878571D01*
X130142858Y-90926190D01*
X129761905Y-90926190D01*
X130714286Y-90497619D02*
X130761905Y-90450000D01*
X130857143Y-90402381D01*
X131095239Y-90402381D01*
X131190477Y-90450000D01*
X131238096Y-90497619D01*
X131285715Y-90592857D01*
X131285715Y-90688095D01*
X131238096Y-90830952D01*
X130666667Y-91402381D01*
X131285715Y-91402381D01*
X129702031Y-94937732D02*
X129129610Y-94836717D01*
X129297970Y-95341794D02*
X128590863Y-94634687D01*
X128860237Y-94365312D01*
X128961253Y-94331641D01*
X129028596Y-94331641D01*
X129129611Y-94365312D01*
X129230626Y-94466328D01*
X129264298Y-94567343D01*
X129264298Y-94634686D01*
X129230626Y-94735701D01*
X128961252Y-95005076D01*
X129230626Y-93994924D02*
X129668359Y-93557190D01*
X129702030Y-94062267D01*
X129803046Y-93961251D01*
X129904061Y-93927579D01*
X129971405Y-93927579D01*
X130072421Y-93961252D01*
X130240779Y-94129610D01*
X130274451Y-94230626D01*
X130274451Y-94297969D01*
X130240779Y-94398984D01*
X130038748Y-94601015D01*
X129937733Y-94634687D01*
X129870390Y-94634687D01*
X137702032Y-98937732D02*
X137365314Y-99274450D01*
X136658207Y-98567343D01*
X138308124Y-98331641D02*
X137904062Y-98735702D01*
X138106093Y-98533672D02*
X137398986Y-97826565D01*
X137432658Y-97994924D01*
X137432658Y-98129610D01*
X137398986Y-98230626D01*
X122333334Y-109357143D02*
X122285715Y-109404762D01*
X122142858Y-109452381D01*
X122047620Y-109452381D01*
X121904762Y-109404762D01*
X121809524Y-109309524D01*
X121761905Y-109214286D01*
X121714286Y-109023810D01*
X121714286Y-108880952D01*
X121761905Y-108690476D01*
X121809524Y-108595238D01*
X121904762Y-108500000D01*
X122047620Y-108452381D01*
X122142858Y-108452381D01*
X122285715Y-108500000D01*
X122333334Y-108547619D01*
X123285715Y-109452381D02*
X122714286Y-109452381D01*
X123000000Y-109452381D02*
X123000000Y-108452381D01*
X122904762Y-108595238D01*
X122809524Y-108690476D01*
X122714286Y-108738095D01*
X122333334Y-101357143D02*
X122285715Y-101404762D01*
X122142858Y-101452381D01*
X122047620Y-101452381D01*
X121904762Y-101404762D01*
X121809524Y-101309524D01*
X121761905Y-101214286D01*
X121714286Y-101023810D01*
X121714286Y-100880952D01*
X121761905Y-100690476D01*
X121809524Y-100595238D01*
X121904762Y-100500000D01*
X122047620Y-100452381D01*
X122142858Y-100452381D01*
X122285715Y-100500000D01*
X122333334Y-100547619D01*
X122714286Y-100547619D02*
X122761905Y-100500000D01*
X122857143Y-100452381D01*
X123095239Y-100452381D01*
X123190477Y-100500000D01*
X123238096Y-100547619D01*
X123285715Y-100642857D01*
X123285715Y-100738095D01*
X123238096Y-100880952D01*
X122666667Y-101452381D01*
X123285715Y-101452381D01*
X125333334Y-104357143D02*
X125285715Y-104404762D01*
X125142858Y-104452381D01*
X125047620Y-104452381D01*
X124904762Y-104404762D01*
X124809524Y-104309524D01*
X124761905Y-104214286D01*
X124714286Y-104023810D01*
X124714286Y-103880952D01*
X124761905Y-103690476D01*
X124809524Y-103595238D01*
X124904762Y-103500000D01*
X125047620Y-103452381D01*
X125142858Y-103452381D01*
X125285715Y-103500000D01*
X125333334Y-103547619D01*
X125666667Y-103452381D02*
X126285715Y-103452381D01*
X125952381Y-103833333D01*
X126095239Y-103833333D01*
X126190477Y-103880952D01*
X126238096Y-103928571D01*
X126285715Y-104023810D01*
X126285715Y-104261905D01*
X126238096Y-104357143D01*
X126190477Y-104404762D01*
X126095239Y-104452381D01*
X125809524Y-104452381D01*
X125714286Y-104404762D01*
X125666667Y-104357143D01*
X134357143Y-102166666D02*
X134404762Y-102214285D01*
X134452381Y-102357142D01*
X134452381Y-102452380D01*
X134404762Y-102595238D01*
X134309524Y-102690476D01*
X134214286Y-102738095D01*
X134023810Y-102785714D01*
X133880952Y-102785714D01*
X133690476Y-102738095D01*
X133595238Y-102690476D01*
X133500000Y-102595238D01*
X133452381Y-102452380D01*
X133452381Y-102357142D01*
X133500000Y-102214285D01*
X133547619Y-102166666D01*
X133452381Y-101309523D02*
X133452381Y-101500000D01*
X133500000Y-101595238D01*
X133547619Y-101642857D01*
X133690476Y-101738095D01*
X133880952Y-101785714D01*
X134261905Y-101785714D01*
X134357143Y-101738095D01*
X134404762Y-101690476D01*
X134452381Y-101595238D01*
X134452381Y-101404761D01*
X134404762Y-101309523D01*
X134357143Y-101261904D01*
X134261905Y-101214285D01*
X134023810Y-101214285D01*
X133928571Y-101261904D01*
X133880952Y-101309523D01*
X133833333Y-101404761D01*
X133833333Y-101595238D01*
X133880952Y-101690476D01*
X133928571Y-101738095D01*
X134023810Y-101785714D01*
X134357143Y-104666666D02*
X134404762Y-104714285D01*
X134452381Y-104857142D01*
X134452381Y-104952380D01*
X134404762Y-105095238D01*
X134309524Y-105190476D01*
X134214286Y-105238095D01*
X134023810Y-105285714D01*
X133880952Y-105285714D01*
X133690476Y-105238095D01*
X133595238Y-105190476D01*
X133500000Y-105095238D01*
X133452381Y-104952380D01*
X133452381Y-104857142D01*
X133500000Y-104714285D01*
X133547619Y-104666666D01*
X133452381Y-104333333D02*
X133452381Y-103666666D01*
X134452381Y-104095238D01*
M02*
